<svg version="1.1" id="Layer_1" xmlns="http://www.w3.org/2000/svg" x="0" y="0" viewBox="0 0 140 43.4" xml:space="preserve"><style>.st0{fill:#373a3b}.st1{fill:#f15c22}</style><path class="st0" d="M68.7 15c-1.8 0-3.3.6-4.4 1.8l-.6-1.5H60v13.3h4.7v-7.1c0-1.6 1-2.6 2.5-2.6 1.2 0 2.1.9 2.1 2.1v7.6H74v-8.4c0-1.5-.5-2.8-1.5-3.7-.9-1-2.2-1.5-3.8-1.5zM52.7 9.2h4.7v4.7h-4.7zM52.7 15.4h4.7v13.3h-4.7zM138.3 17c-1.2-1.3-2.6-2-4.4-2-1.6 0-2.9.5-4 1.6l-.6-1.2h-3.8v18.9h4.7v-6.5c1.1.8 2.2 1.3 3.6 1.3 1.8 0 3.3-.7 4.4-1.9 1.2-1.3 1.7-3 1.7-5 .1-2.2-.5-3.9-1.6-5.2zm-5.7 8.3c-1.4 0-2.4-1.1-2.4-2.6v-1.4c0-1.5 1-2.6 2.4-2.6 1.5 0 2.6 1.3 2.6 3.3 0 1.9-1.1 3.3-2.6 3.3zM120.6 9.1c-1.5 0-2.7 1.1-2.7 2.7 0 1.5 1.2 2.7 2.7 2.7 1.6 0 2.7-1.2 2.7-2.7 0-1.5-1.1-2.7-2.7-2.7zM118.2 15.4h4.7v13.3h-4.7zM98.5 17c-1.4-1.3-3.2-2-5.5-2-2.2 0-4 .6-5.5 2-1.4 1.3-2.1 3-2.1 5s.7 3.7 2.1 5c1.5 1.3 3.3 2 5.5 2s4.1-.7 5.5-1.9c1.4-1.3 2.1-3 2.1-5 0-2.1-.7-3.8-2.1-5.1zM93 25.3c-1.6 0-2.7-1.4-2.7-3.3 0-2 1.1-3.3 2.7-3.3s2.8 1.4 2.8 3.3c0 2-1.2 3.3-2.8 3.3zM83.5 13.2c.4 0 .9.1 1.6.2l.6-3.5c-1.1-.3-2.2-.4-3.3-.4-1.5 0-2.7.4-3.6 1.3-.9.9-1.4 2-1.4 3.4v1.2h-2.2V19h2.2v9.7h4.7V19h2.7v-3.6h-2.7v-.8c0-.9.5-1.4 1.4-1.4z"/><g><path class="st0" d="M114.7 17c-1.2-1.3-2.6-2-4.4-2-1.4 0-2.6.4-3.6 1.3V9.7H102v18.9h3.8l.6-1.2c1 1 2.3 1.6 3.9 1.6 1.8 0 3.3-.7 4.4-1.9 1.2-1.3 1.8-3 1.8-5 0-2.1-.6-3.8-1.8-5.1zm-5.6 8.3c-1.4 0-2.4-1.1-2.4-2.6v-1.4c0-1.5 1-2.6 2.4-2.6 1.5 0 2.6 1.3 2.6 3.3 0 1.9-1.1 3.3-2.6 3.3z"/></g><g><path class="st1" d="M25.9 18.7v5.9c0 .7-.6 1.2-1.2 1.2h-5.9c-.7 0-1.2-.6-1.2-1.2v-5.9c0-.7.6-1.2 1.2-1.2h5.9c.7 0 1.2.5 1.2 1.2z"/><path class="st1" d="M31.9 11.5c-1.7-1.7-5.7-2.8-10.2-2.8s-8.5 1.1-10.2 2.8c-1.7 1.7-2.8 5.7-2.8 10.2s1.1 8.5 2.8 10.2c1.7 1.7 5.7 2.8 10.2 2.8s8.5-1.1 10.2-2.8c.8-.8 1.5-2.3 2-4 .5-1.8.8-3.9.8-6.1-.1-4.6-1.1-8.6-2.8-10.3zm-4 16.4c-.4.4-1.4 1.4-6.3 1.4s-5.9-1.1-6.3-1.4c-.3-.4-1.3-1.4-1.3-6.3s1.1-5.9 1.4-6.3c.3-.4 1.4-1.4 6.3-1.4s5.9 1.1 6.3 1.4c.3.4 1.4 1.4 1.4 6.3s-1.1 5.9-1.5 6.3z"/><path class="st1" d="M25.9 18.7v5.9c0 .7-.6 1.2-1.2 1.2h-5.9c-.7 0-1.2-.6-1.2-1.2v-5.9c0-.7.6-1.2 1.2-1.2h5.9c.7 0 1.2.5 1.2 1.2z"/><path class="st1" d="M25.9 18.7v5.9c0 .7-.6 1.2-1.2 1.2h-5.9c-.7 0-1.2-.6-1.2-1.2v-5.9c0-.7.6-1.2 1.2-1.2h5.9c.7 0 1.2.5 1.2 1.2z"/><path class="st1" d="M25.9 18.7v5.9c0 .7-.6 1.2-1.2 1.2h-5.9c-.7 0-1.2-.6-1.2-1.2v-5.9c0-.7.6-1.2 1.2-1.2h5.9c.7 0 1.2.5 1.2 1.2z"/><path class="st1" d="M31.9 11.5c-1.7-1.7-5.7-2.8-10.2-2.8s-8.5 1.1-10.2 2.8c-1.7 1.7-2.8 5.7-2.8 10.2s1.1 8.5 2.8 10.2c1.7 1.7 5.7 2.8 10.2 2.8s8.5-1.1 10.2-2.8c.8-.8 1.5-2.3 2-4 .5-1.8.8-3.9.8-6.1-.1-4.6-1.1-8.6-2.8-10.3zm-4 16.4c-.4.4-1.4 1.4-6.3 1.4s-5.9-1.1-6.3-1.4c-.3-.4-1.3-1.4-1.3-6.3s1.1-5.9 1.4-6.3c.3-.4 1.4-1.4 6.3-1.4s5.9 1.1 6.3 1.4c.3.4 1.4 1.4 1.4 6.3s-1.1 5.9-1.5 6.3z"/><path class="st1" d="M21.7 0C9.7 0 0 9.7 0 21.7c0 11.9 9.6 21.5 21.4 21.7 12.1.2 22.2-9.9 22-22C43.2 9.6 33.6 0 21.7 0zm12.4 34.2c-2.4 2.4-7 3.8-12.4 3.8s-10.1-1.4-12.4-3.8c-2.4-2.4-3.8-7-3.8-12.4s1.4-10 3.8-12.4c2.4-2.4 7-3.8 12.4-3.8s10 1.4 12.4 3.8c2.4 2.4 3.8 7 3.8 12.4s-1.4 10-3.8 12.4z"/></g></svg>