<?xml version="1.0" standalone="no"?>
<!DOCTYPE svg PUBLIC "-//W3C//DTD SVG 20010904//EN"
 "http://www.w3.org/TR/2001/REC-SVG-20010904/DTD/svg10.dtd">
<svg version="1.0" xmlns="http://www.w3.org/2000/svg"
 width="700.000000pt" height="700.000000pt" viewBox="0 0 700.000000 700.000000"
 preserveAspectRatio="xMidYMid meet">
<metadata>
Created by potrace 1.11, written by Peter Selinger 2001-2013
</metadata>
<g transform="translate(0.000000,700.000000) scale(0.100000,-0.100000)"
fill="#000000" stroke="none">
<path d="M3239 6996 c-2 -2 -42 -7 -89 -10 -47 -4 -96 -9 -110 -11 -14 -1 -45
-6 -70 -9 -240 -29 -619 -131 -825 -221 -16 -7 -59 -25 -95 -41 -147 -63 -325
-160 -480 -262 -810 -529 -1364 -1370 -1519 -2307 -38 -224 -46 -329 -46 -585
0 -194 9 -390 20 -423 2 -6 6 -37 10 -67 17 -158 93 -466 164 -665 254 -713
746 -1334 1378 -1741 148 -95 201 -125 368 -207 248 -123 622 -250 830 -283
22 -3 42 -7 45 -9 7 -4 57 -12 195 -30 28 -3 61 -8 75 -10 134 -22 599 -22
730 -1 14 3 48 7 75 11 537 65 1084 281 1550 611 199 141 493 413 647 599 290
347 500 722 638 1136 37 110 91 309 104 383 3 16 10 52 15 80 16 79 20 106 27
171 3 33 7 66 9 73 8 22 19 253 19 377 -1 114 -9 280 -19 355 -3 19 -7 55 -10
80 -6 51 -15 108 -32 200 -17 95 -60 265 -94 375 -210 670 -613 1256 -1160
1690 -97 77 -351 255 -364 255 -3 0 -22 11 -43 23 -140 89 -408 211 -612 280
-132 45 -368 110 -442 121 -21 3 -57 10 -80 15 -24 5 -68 12 -98 15 -66 7
-136 16 -170 23 -29 5 -536 13 -541 9z m636 -905 c139 -14 196 -21 215 -26 8
-2 35 -7 60 -10 141 -19 339 -65 510 -120 706 -224 1056 -616 1255 -1405 18
-74 36 -151 39 -170 3 -19 8 -46 10 -60 10 -52 31 -203 40 -285 28 -240 29
-714 1 -970 -37 -338 -133 -727 -232 -945 -13 -30 -32 -71 -41 -90 -8 -19 -38
-74 -64 -122 -200 -357 -499 -587 -978 -750 -80 -27 -282 -83 -339 -93 -27 -5
-44 -8 -126 -25 -27 -5 -68 -12 -90 -15 -22 -3 -56 -7 -75 -10 -19 -2 -60 -7
-90 -10 -30 -4 -66 -8 -79 -10 -161 -26 -694 -23 -921 5 -41 5 -93 12 -115 14
-56 7 -175 25 -205 31 -14 3 -41 8 -60 11 -122 20 -373 94 -530 156 -568 227
-860 584 -1060 1298 -12 42 -47 197 -54 237 -9 48 -25 156 -31 203 -3 25 -7
61 -10 80 -38 299 -38 739 0 1045 2 22 7 60 10 85 3 25 8 57 10 73 3 15 7 39
10 55 12 77 18 104 35 182 120 532 333 928 624 1155 183 142 392 249 656 333
80 26 141 42 295 79 51 12 296 53 350 58 33 4 70 8 83 10 13 2 71 7 130 11 59
3 109 8 110 9 9 8 559 -4 657 -14z"/>
<path d="M3288 5615 c-2 -1 -55 -5 -118 -8 -572 -30 -1109 -204 -1341 -436
-199 -200 -356 -620 -414 -1111 -4 -30 -9 -66 -11 -80 -18 -112 -24 -540 -11
-735 23 -327 91 -658 186 -902 124 -318 260 -474 528 -607 181 -89 458 -171
708 -210 94 -14 173 -24 307 -36 96 -8 659 -6 713 3 17 3 53 8 80 11 109 13
142 17 200 27 317 56 562 135 755 244 155 87 240 169 325 311 128 213 239 552
280 849 3 22 8 51 10 65 3 14 7 52 11 85 3 33 10 94 14 135 8 79 6 597 -3 640
-3 14 -8 52 -11 85 -26 281 -92 588 -172 803 -122 326 -270 493 -556 626 -226
106 -554 188 -873 220 -27 3 -79 8 -114 12 -66 6 -487 14 -493 9z m472 -839
c333 -26 570 -99 686 -211 153 -150 227 -474 227 -1000 -1 -256 -8 -359 -38
-560 -12 -78 -57 -221 -92 -295 -26 -54 -55 -94 -102 -140 -132 -131 -304
-185 -691 -220 -96 -8 -619 -5 -675 4 -16 2 -68 10 -115 16 -211 27 -429 105
-509 181 -88 84 -160 267 -187 474 -2 22 -7 49 -9 60 -20 97 -28 665 -12 835
38 393 143 637 313 727 132 70 320 111 580 129 55 3 100 7 101 8 6 5 441 -2
523 -8z"/>
<path d="M2926 4206 c-47 -18 -94 -60 -112 -103 -11 -26 -14 -132 -14 -548 0
-492 1 -518 20 -554 24 -48 70 -87 118 -101 51 -14 994 -14 1045 1 47 13 100
58 122 105 15 33 17 86 17 553 0 508 0 519 -21 559 -12 24 -39 54 -63 69 l-42
28 -515 2 c-421 2 -523 0 -555 -11z"/>
</g>
</svg>
